<svg width="17" height="16" viewBox="0 0 17 16" fill="none" xmlns="http://www.w3.org/2000/svg">
<g clip-path="url(#clip0_6458_123681)">
<path d="M8.09035 0.331024C3.7869 0.331024 0.366211 3.75171 0.366211 8.05516C0.366211 12.3586 3.7869 15.7793 8.09035 15.7793C12.3938 15.7793 15.8145 12.3586 15.8145 8.05516C15.8145 3.75171 12.2835 0.331024 8.09035 0.331024ZM8.09035 13.5724C5.00069 13.5724 2.57311 11.1448 2.57311 8.05516C2.57311 4.96551 5.00069 2.53792 8.09035 2.53792C11.18 2.53792 13.6076 4.96551 13.6076 8.05516C13.6076 11.1448 11.0697 13.5724 8.09035 13.5724ZM7.20759 8.60689H9.08345V4.52413H7.20759V8.60689ZM7.20759 11.4759H9.08345V9.71033H7.20759V11.4759Z" fill="white"/>
</g>
<defs>
<clipPath id="clip0_6458_123681">
<rect width="16" height="16" fill="white" transform="translate(0.0351562)"/>
</clipPath>
</defs>
</svg>
