<svg width="16" height="16" viewBox="0 0 16 16" fill="none" xmlns="http://www.w3.org/2000/svg">
<path d="M5.73793 3.53102H10.2621L11.9172 1.21378C11.9172 1.21378 12.469 0.441369 10.0414 0.331024C10.0414 0.331024 8.71724 0.772403 8.05517 0.772403C7.3931 0.772403 5.95862 0.331024 5.95862 0.331024C3.53103 0.331024 4.08276 1.21378 4.08276 1.21378L5.73793 3.53102ZM15.4483 11.1448C14.0138 6.95171 10.1517 4.74482 10.1517 4.74482H5.84827C5.84827 4.74482 1.9862 6.95171 0.551721 11.1448C-0.882762 15.3379 3.08965 15.5586 3.08965 15.5586H12.9103C12.9103 15.669 16.7724 15.3379 15.4483 11.1448ZM10.5931 12.9103C10.3724 13.131 10.1517 13.2414 9.93103 13.3517C9.71034 13.4621 9.48965 13.5724 9.15862 13.6827C8.82758 13.7931 8.60689 13.7931 8.3862 13.7931C8.05517 13.7931 7.72413 13.6827 7.3931 13.5724C7.06207 13.4621 6.84138 13.2414 6.51034 13.131C6.28965 12.9103 6.06896 12.6896 5.84827 12.469C5.73793 12.1379 5.62758 11.8069 5.51724 11.4759H4.52413L4.85517 10.8138H5.40689C5.40689 10.7034 5.40689 10.5931 5.40689 10.3724H4.63448L4.85517 9.71033H5.29655C5.40689 9.3793 5.51724 9.15861 5.73793 8.82758C5.95862 8.49654 6.06896 8.27585 6.4 8.05516C6.62069 7.83447 6.95172 7.61378 7.28275 7.50344C7.61379 7.39309 8.05517 7.28275 8.3862 7.28275C8.93793 7.28275 9.48965 7.39309 9.93103 7.61378C10.3724 7.83447 10.7034 8.16551 10.9241 8.60689L9.93103 9.3793C9.82069 9.15861 9.82069 9.04827 9.6 8.93792C9.48965 8.71723 9.37931 8.71723 9.26896 8.60689C9.15862 8.49654 8.93793 8.49654 8.82758 8.3862C8.71724 8.3862 8.49655 8.3862 8.3862 8.3862C8.16551 8.3862 7.94482 8.3862 7.72413 8.49654C7.50344 8.60689 7.3931 8.71723 7.28275 8.82758C7.17241 8.93792 6.95172 9.04826 6.95172 9.26895C6.84138 9.3793 6.73103 9.59999 6.62069 9.71033H8.93793L8.71724 10.3724H6.51034V10.4827C6.51034 10.5931 6.51034 10.7034 6.51034 10.8138H8.60689L8.3862 11.4759H6.73103C6.84138 11.8069 7.06207 12.0276 7.3931 12.2483C7.72413 12.469 8.05517 12.5793 8.3862 12.5793C8.49655 12.5793 8.71724 12.5793 8.82758 12.5793C8.93793 12.5793 9.15862 12.469 9.26896 12.3586C9.37931 12.2483 9.48965 12.1379 9.71034 12.0276C9.93103 11.9172 9.93103 11.8069 9.93103 11.6965L10.9241 12.2483C10.9241 12.469 10.7034 12.6896 10.5931 12.9103Z" fill="#CCCCCC"/>
</svg>
