<svg width="15" height="15" viewBox="0 0 15 15" fill="none" xmlns="http://www.w3.org/2000/svg">
<g clip-path="url(#clip0_6442_121796)">
<path d="M7.54492 0.171936C3.64492 0.171936 0.544922 3.27194 0.544922 7.17194C0.544922 11.0719 3.64492 14.1719 7.54492 14.1719C11.4449 14.1719 14.5449 11.0719 14.5449 7.17194C14.5449 3.27194 11.4449 0.171936 7.54492 0.171936ZM7.54492 12.1719C4.74492 12.1719 2.54492 9.97194 2.54492 7.17194C2.54492 4.37194 4.74492 2.17194 7.54492 2.17194C10.3449 2.17194 12.5449 4.37194 12.5449 7.17194C12.5449 9.97194 10.3449 12.1719 7.54492 12.1719ZM6.84492 10.3719H8.54492V6.67194H6.84492V10.3719ZM6.84492 5.57194H8.54492V3.97194H6.84492V5.57194Z" fill="#DD8447"/>
</g>
<defs>
<clipPath id="clip0_6442_121796">
<rect width="14" height="14" fill="white" transform="translate(0.544922 0.171936)"/>
</clipPath>
</defs>
</svg>
