<svg width="16" height="16" viewBox="0 0 16 16" fill="none" xmlns="http://www.w3.org/2000/svg">
<path d="M10.2857 8.34285C12 8.34285 13.3714 6.97142 13.3714 5.25713C13.3714 3.54285 12 2.17142 10.2857 2.17142C8.57138 2.17142 7.19995 3.42856 7.19995 5.14285C7.19995 6.97142 8.57138 8.34285 10.2857 8.34285Z" fill="#CCCCCC"/>
<path d="M13.7143 8.11429C12.9143 9.02857 11.6572 9.71429 10.2857 9.71429C8.9143 9.71429 7.65715 9.14286 6.85715 8.11429C5.48572 8.11429 4.45715 9.25715 4.45715 10.6286V13.9429H16V10.6286C16 9.25715 14.9714 8.22857 13.7143 8.11429Z" fill="#CCCCCC"/>
<path d="M3.42858 5.82856C2.28572 5.82856 1.48572 5.02856 1.48572 3.99999C1.48572 2.85713 2.28572 2.05713 3.42858 2.05713C4.57143 2.05713 5.37143 2.85713 5.37143 3.99999C5.25715 5.02856 4.45715 5.82856 3.42858 5.82856Z" fill="#CCCCCC"/>
<path d="M6.28571 5.94287C6.05714 5.82858 5.82857 5.71429 5.48571 5.71429C5.02857 6.28572 4.34286 6.74287 3.42857 6.74287C2.62857 6.74287 1.94286 6.28572 1.37143 5.71429C0.571429 5.82858 0 6.51429 0 7.20001V9.25715H3.2C3.65714 7.88572 4.8 6.97144 6.28571 6.74287V5.94287Z" fill="#CCCCCC"/>
</svg>
