<svg width="16" height="16" viewBox="0 0 16 16" fill="none" xmlns="http://www.w3.org/2000/svg">
<path d="M9.14292 14.2857L6.62863 14.8571C6.28578 14.9714 6.17149 15.2 6.17149 15.5429C6.28578 15.8857 6.51435 16 6.74292 16H6.85721L9.37149 15.4286C9.71435 15.3143 9.82863 15.0857 9.82863 14.7429C9.71435 14.4 9.48578 14.2857 9.14292 14.2857ZM10.4001 11.5429C10.6286 11.5429 10.8572 11.3143 10.8572 10.9714C10.8572 10.4 11.6572 9.02857 12.3429 8.11429C12.9143 7.31429 13.2572 6.28571 13.2572 5.25714C13.2572 2.4 10.9715 0 8.00006 0C5.14292 0 2.74292 2.28571 2.74292 5.25714C2.74292 6.62857 3.20006 7.88572 4.22863 8.91429C4.80006 9.37143 4.91435 9.94286 4.91435 10.4C4.91435 10.7429 5.25721 10.9714 5.48578 10.8571C5.82863 10.8571 6.05721 10.5143 5.94292 10.2857C6.05721 9.37143 5.60006 8.68571 5.02863 8.11429C4.34292 7.31429 3.88578 6.4 3.88578 5.25714C3.88578 2.97143 5.71435 1.14286 8.00006 1.14286C10.2858 1.14286 12.1143 2.97143 12.1143 5.25714C12.1143 6.05714 11.8858 6.85714 11.4286 7.54286C11.2001 7.88571 10.0572 9.37143 9.82863 10.5143L5.71435 11.5429C5.48578 11.5429 5.25721 11.7714 5.25721 12.1143V13.8286C5.25721 13.9429 5.37149 14.1714 5.48578 14.2857C5.60006 14.4 5.71435 14.4 5.82863 14.4H5.94292L10.5143 13.3714C10.8572 13.2571 10.9715 13.0286 10.9715 12.6857C10.8572 12.3429 10.6286 12.2286 10.2858 12.2286L6.28578 13.1429V12.4571L10.4001 11.5429ZM5.71435 6.97143L6.17149 7.42857C6.28578 7.54286 6.40006 7.54286 6.40006 7.42857L6.74292 7.2C6.97149 7.31429 7.08578 7.42857 7.31435 7.42857L7.42863 7.88571C7.42863 8 7.54292 8.11429 7.65721 8.11429H8.34292C8.45721 8.11429 8.57149 8 8.57149 7.88571L8.68578 7.42857C8.91435 7.42857 9.14292 7.31429 9.25721 7.2L9.60006 7.42857C9.71435 7.54286 9.82863 7.54286 9.82863 7.42857L10.2858 6.97143C10.4001 6.85714 10.4001 6.74286 10.2858 6.74286L10.1715 6.28571C10.2858 6.17143 10.2858 5.94286 10.4001 5.71429L10.8572 5.6C10.9715 5.6 11.0858 5.48571 11.0858 5.37143V4.8C10.9715 4.68571 10.8572 4.57143 10.8572 4.57143L10.4001 4.45714C10.2858 4.22857 10.2858 4 10.1715 3.88571L10.4001 3.42857C10.5143 3.31429 10.5143 3.2 10.4001 3.2L9.82863 2.74286C9.71435 2.62857 9.60006 2.62857 9.60006 2.74286L9.25721 2.97143C9.02864 2.85714 8.91435 2.74286 8.68578 2.74286L8.57149 2.28571C8.57149 2.17143 8.45721 2.05714 8.34292 2.05714H7.65721C7.54292 2.17143 7.54292 2.17143 7.54292 2.28571L7.42863 2.74286C7.20006 2.74286 6.97149 2.85714 6.85721 2.97143L6.40006 2.74286C6.28578 2.62857 6.17149 2.62857 6.17149 2.74286L5.71435 3.2C5.60006 3.31429 5.60006 3.42857 5.71435 3.42857L5.94292 3.77143C5.82863 4 5.71435 4.22857 5.60006 4.45714L5.25721 4.57143C5.14292 4.57143 5.02863 4.68571 5.02863 4.8V5.48571C5.02863 5.6 5.14292 5.71429 5.25721 5.71429H5.60006C5.60006 5.94286 5.71435 6.17143 5.82863 6.28571L5.71435 6.74286C5.60006 6.74286 5.60006 6.85714 5.71435 6.97143ZM8.00006 3.77143C8.80006 3.77143 9.37149 4.34286 9.37149 5.14286C9.37149 5.94286 8.80006 6.4 8.00006 6.4C7.20006 6.4 6.62863 5.82857 6.62863 5.02857C6.62863 4.22857 7.31435 3.77143 8.00006 3.77143Z" fill="#DD8447"/>
</svg>
