<svg width="16" height="17" viewBox="0 0 16 17" fill="none" xmlns="http://www.w3.org/2000/svg">
<g clip-path="url(#clip0_10483_4034)">
<path d="M12.2286 2.14311V0.085968H11.0857V0.543111V2.14311H4.91429V0.085968H3.77143V2.02883H0V16.086H16V2.14311H12.2286ZM13.7143 13.8003H2.28571V4.42883H3.77143V6.2574H4.91429V4.42883H11.0857V6.2574H12.2286V4.42883H13.7143V13.8003ZM7.65714 10.7145C7.77143 10.6003 7.88571 10.486 8.11429 10.3717C8.22857 10.2574 8.45714 10.1431 8.57143 10.0288C8.68571 9.91454 8.91429 9.80025 9.02857 9.80025C9.14286 9.80025 9.25714 9.68597 9.48571 9.57168C9.6 9.4574 9.82857 9.34311 9.94286 9.22883C10.0571 9.00025 10.1714 8.88597 10.2857 8.6574C10.4 8.42883 10.4 8.20025 10.4 7.97168C10.4 7.74311 10.4 7.51454 10.2857 7.28597C10.1714 7.0574 10.0571 6.82883 9.82857 6.71454C9.6 6.48597 9.37143 6.37168 9.14286 6.37168C8.8 6.2574 8.45714 6.14311 8.11429 6.14311C7.77143 6.14311 7.54286 6.14311 7.2 6.2574C6.97143 6.37168 6.74286 6.48597 6.51429 6.60025C6.28571 6.60025 6.05714 6.71454 5.94286 6.82883C5.71429 6.94311 5.6 7.0574 5.48571 7.17168L6.4 8.20025C6.51429 8.20025 6.62857 8.08597 6.74286 7.97168C6.74286 7.8574 6.85714 7.74311 7.08571 7.74311C7.2 7.62883 7.31429 7.62883 7.42857 7.51454C7.54286 7.51454 7.77143 7.40025 7.88571 7.40025C8.22857 7.40025 8.45714 7.51454 8.57143 7.62883C8.68571 7.74311 8.8 7.97168 8.8 8.20025C8.8 8.31454 8.8 8.42883 8.68571 8.54311C8.68571 8.6574 8.57143 8.77168 8.45714 8.88597C8.22857 9.00025 8.11429 9.11454 7.88571 9.22883C7.65714 9.34311 7.42857 9.4574 7.08571 9.57168C6.74286 9.80025 6.51429 9.91454 6.28571 10.1431C6.05714 10.3717 5.94286 10.6003 5.82857 10.7145C5.6 10.9431 5.6 11.1717 5.48571 11.5145C5.48571 11.7431 5.37143 12.086 5.37143 12.4288H10.5143V11.0574H7.31429C7.42857 10.9431 7.54286 10.8288 7.65714 10.7145Z" fill="#CCCCCC"/>
</g>
<defs>
<clipPath id="clip0_10483_4034">
<rect width="16" height="16" fill="white" transform="translate(0 0.085968)"/>
</clipPath>
</defs>
</svg>
