<!-- icon666.com - MILLIONS vector ICONS FREE --><svg version="1.1" id="Capa_1" xmlns="http://www.w3.org/2000/svg" xmlns:xlink="http://www.w3.org/1999/xlink" x="0px" y="0px" viewBox="0 0 92.5 92.5" style="enable-background:new 0 0 92.5 92.5;" xml:space="preserve"><g><g><path d="M78.491,68.543c-1.095-1.827-2.732-3.105-4.575-3.827l-12.484-5.653l-5.113-4.634l-10.142,9.258l-9.913-9.34l-5.785,4.879 l-12.044,5.542c-1.778,0.731-3.361,1.996-4.427,3.775L0,91.969h92.5L78.491,68.543z"></path><path d="M28.417,39.25c0.292-0.665,2.644-14.589,25.708-23c11.083-4.042,9.788,23,9.788,23c4.462-2.125,5.575-15.149,5.571-16.784 c-0.023-14.041-9.1-22.257-24.195-21.926C30.749,0.877,22.293,8.93,22.873,23.018C22.938,24.594,23.875,36.5,28.417,39.25z"></path></g></g></svg>