<svg width="14" height="15" viewBox="0 0 14 15" fill="none" xmlns="http://www.w3.org/2000/svg">
<path d="M7 0.257935C3.1 0.257935 0 2.65793 0 5.75793C0 7.25793 0.8 8.55793 2.1 9.55793L0 14.2579L5.1 10.9579C5.7 11.0579 6.3 11.1579 7 11.1579C10.9 11.1579 14 8.75793 14 5.65793C14 2.55793 10.9 0.257935 7 0.257935ZM7 9.15793C6.7 9.15793 6.4 9.15794 6.2 9.05793C6 9.05793 5.9 9.05793 5.7 8.95793C4.9 8.85793 4.2 8.55793 3.6 8.25793L3.3 7.95793C3 7.75793 2.6 7.35793 2.3 6.85793C2.2 6.75793 2.2 6.65793 2.1 6.45793C2.1 6.35793 2.1 6.35793 2.1 6.25793C2 6.15793 2 5.95793 2 5.75793C2 3.85793 4.3 2.25793 7 2.25793C9.7 2.25793 12 3.85793 12 5.75793C12 7.65793 9.7 9.15793 7 9.15793Z" fill="#DD8447"/>
</svg>
